<svg xmlns="http://www.w3.org/2000/svg" width="26" height="23" viewBox="0 0 88 77.98">
	<style type="text/css">
		.st0{fill:#000000;}
	</style>
	<path class="st0" d="M66,27C67.68,27 69,28.32 69,30C69,31.68 67.68,33 66,33C64.31,33 63,31.68 63,30C63,28.32 64.31,27 66,27M44,27C45.68,27 47,28.32 47,30C47,31.68 45.68,33 44,33C42.31,33 41,31.68 41,30C41,28.32 42.31,27 44,27M22,27C23.68,27 25,28.32 25,30C25,31.68 23.68,33 22,33C20.31,33 19,31.68 19,30C19,28.32 20.31,27 22,27M66,23C62.15,23 59,26.16 59,30C59,33.84 62.15,37 66,37C69.84,37 73,33.84 73,30C73,26.16 69.84,23 66,23M44,23C40.15,23 37,26.16 37,30C37,33.84 40.15,37 44,37C47.84,37 51,33.84 51,30C51,26.16 47.84,23 44,23M22,23C18.15,23 15,26.16 15,30C15,33.84 18.15,37 22,37C25.84,37 29,33.84 29,30C29,26.16 25.84,23 22,23M4,4L84,4L84,56L20,56C19.47,55.99 18.97,56.2 18.59,56.56L4,71.15ZM1.81,0C0.78,0.09 0,0.96 0,2L0,76C0,77.1 0.91,77.99 2.01,77.98C2.53,77.98 3.03,77.77 3.4,77.4L20.81,60L86,60C87.1,60 88,59.1 88,58L88,2C88,0.89 87.1,0 86,0L2,0C1.93,0 1.87,0 1.81,0"/>
</svg>