<svg xmlns="http://www.w3.org/2000/svg" width="66" height="90" viewBox="0 0 66 90">
	<style type="text/css">
		.st0{fill:#000000;}
	</style>
	<path class="st0" d="M33,20.97C39.66,20.97 45,26.31 45,32.97C45,39.64 39.66,44.98 33,44.98C26.33,44.98 21,39.64 21,32.97C21,26.31 26.33,20.97 33,20.97M33,14.97C23.09,14.97 15,23.06 15,32.97C15,42.88 23.09,50.98 33,50.98C42.9,50.98 51,42.88 51,32.97C51,23.06 42.9,14.97 33,14.97M33,6C47.94,6 60,18.05 60,33C60,51.08 43.19,71.91 33,82.55C22.8,71.91 6,51.08 6,33C6,18.05 18.05,6 33,6M33,0C14.8,0 0,14.81 0,33C0,56.05 20.67,78.91 30.87,89.11C32.04,90.29 33.94,90.29 35.11,89.12C35.11,89.12 35.12,89.12 35.12,89.11C45.32,78.91 66,56.05 66,33C66,14.81 51.18,0 33,0"/>
</svg>