<svg xmlns="http://www.w3.org/2000/svg" width="68.49" height="90" viewBox="0 0 68.49 90">
	<style type="text/css">
		.st0{fill:#000000;}
	</style>
	<path class="st0" d="M19.86,50.36L48.62,50.36C49.79,50.36 50.68,51.24 50.68,52.41L50.68,68.84C50.68,70.02 49.79,70.9 48.62,70.9L19.86,70.9C18.69,70.9 17.81,70.02 17.81,68.84L17.81,52.41C17.81,51.24 18.69,50.36 19.86,50.36M19.86,46.25C16.48,46.25 13.7,49.03 13.7,52.41L13.7,68.84C13.7,72.22 16.48,75.01 19.86,75.01L48.62,75.01C52,75.01 54.78,72.22 54.78,68.84L54.78,52.41C54.78,49.03 52,46.25 48.62,46.25ZM8.21,13.01L24.93,13.01L51.18,36.02C51.93,36.67 52.89,37.03 53.89,37.03L60.27,37.03L60.27,81.78L8.21,81.78ZM44.53,8.65L60.27,8.65L60.27,28.81L55.43,28.81L44.31,19.07L44.53,19.07ZM7.32,0L7.32,4.79L4.1,4.79C1.84,4.79 0,6.63 0,8.9L0,85.89C0,88.16 1.84,90 4.1,90L64.38,90C66.65,90 68.49,88.16 68.49,85.89L68.49,4.54C68.49,2.28 66.65,0.44 64.38,0.44L40.42,0.44C38.15,0.44 36.31,2.28 36.31,4.54L36.31,12.06L29.18,5.81C28.43,5.16 27.47,4.79 26.47,4.79L22.13,4.79L22.13,0Z"/>
</svg>