<svg xmlns="http://www.w3.org/2000/svg" width="15" height="15" viewBox="0 0 407.5 407.5">
	<style type="text/css">
		.st0{fill:#000000;}
	</style>
	<path class="st0" d="M190,25L25,25L25,190L212,377C220,384 232,384 240,377L377,240C384,232 384,220 377,212ZM108,108C101,115 101,127 108,134C115,142 127,142 134,134C142,127 142,115 134,108C127,101 115,101 108,108M90,90C107,73 135,73 152,90C170,107 170,135 152,152C135,170 107,170 90,152C73,135 73,107 90,90M214,272C209,277 201,277 196,272C191,267 191,259 196,254L254,196C259,191 267,191 272,196C277,201 277,209 272,214ZM246,304C242,309 233,309 229,304C224,299 224,291 229,286L286,229C291,224 299,224 304,229C309,233 309,242 304,246ZM13,0L195,0C199,0 202,1 204,4L394,194C412,211 412,240 394,258L258,394C240,412 211,412 194,394L4,204C1,202 0,199 0,195L0,13C0,5 6,0 13,0"/>
</svg>