<svg xmlns="http://www.w3.org/2000/svg" width="279" height="279" viewBox="0 0 279 279">
	<style type="text/css">
		.st0{fill:#000000;}
	</style>
	<path class="st0" d="M61,52C80,34 105,23 133,22L133,0C99,2 69,15 46,36ZM22,133C23,105 34,80 52,61L36,46C15,69 2,99 0,133ZM52,218C34,199 23,174 22,146L0,146C2,180 15,210 36,234ZM133,257C105,256 80,245 61,228L46,243C69,264 99,278 133,279ZM218,228C199,245 174,256 146,257L146,279C180,278 210,264 234,243ZM257,146C256,174 245,199 228,218L243,234C264,210 278,180 279,146ZM228,61C245,80 256,105 257,133L279,133C278,99 264,69 243,46ZM143,136C141,134 138,134 136,136C134,138 134,141 136,143C138,145 141,145 143,143C145,141 145,138 143,136M200,89L157,132C160,139 158,147 153,153C146,160 134,160 127,153C120,146 119,134 127,127C132,121 140,120 147,123L191,79ZM146,22C174,23 199,34 218,52L234,36C210,15 180,2 146,0Z"/>
</svg>