<svg xmlns="http://www.w3.org/2000/svg" width="20" height="15" viewBox="0 0 52 40">
	<style type="text/css">
		.st0{fill:#000000;}
	</style>
	<path class="st0" d="M8,36L17.81,28.64L20.58,31.41C21.36,32.19 22.63,32.19 23.41,31.41L38,16.82L48,26.82L48,36ZM48,4L48,21.17L39.41,12.58C38.63,11.8 37.36,11.8 36.58,12.58L22,27.17L19.41,24.58C18.71,23.88 17.59,23.8 16.79,24.39L4,34L4,4ZM50,0L2,0C0.89,0 0,0.89 0,2L0,38C0,39.1 0.89,40 2,40L50,40C51.1,40 52,39.1 52,38L52,2C52,0.89 51.1,0 50,0"/>
	<path class="st0" d="M16,12C17.1,12 18,12.89 18,14C18,15.1 17.1,16 16,16C14.89,16 14,15.1 14,14C14,12.89 14.89,12 16,12M16,20C19.3,20 22,17.3 22,14C22,10.69 19.3,8 16,8C12.69,8 10,10.69 10,14C10,17.3 12.69,20 16,20"/>
</svg>