<svg xmlns="http://www.w3.org/2000/svg" width="17" height="18" viewBox="0 0 24 24">
	<style type="text/css">
		.st0{fill:#000000;}
	</style>
	<path class="st0" d="M10.1,3.5C9.76,3.5 9.5,3.76 9.5,4.09L9.5,5L14.5,5L14.5,4.09C14.5,3.76 14.23,3.5 13.9,3.5ZM10,2L14,2C15.1,2 16,2.89 16,4L16,5L8,5L8,4C8,2.89 8.89,2 10,2M15,8C15.36,8 15.66,8.29 15.66,8.66C15.66,8.67 15.66,8.68 15.66,8.69L15.13,18.3C15.11,18.69 14.79,19 14.4,19C14.03,19 13.73,18.7 13.73,18.33C13.73,18.32 13.73,18.31 13.73,18.3L14.26,8.69C14.28,8.3 14.6,8 15,8M9,8L9,8C9.39,8 9.71,8.3 9.73,8.69L10.17,18.35C10.18,18.69 9.92,18.98 9.57,18.99C9.56,19 9.55,19 9.55,19C9.18,19 8.88,18.71 8.86,18.35L8.33,8.69C8.31,8.33 8.59,8.02 8.96,8C8.97,8 8.98,8 9,8M12,8L12,8C12.38,8 12.7,8.31 12.7,8.69L12.7,18.29C12.7,18.68 12.38,19 12,19C11.61,19 11.3,18.68 11.3,18.29L11.3,8.69C11.3,8.31 11.61,8 12,8M17.37,6.5L6.62,6.5L7.34,19.55C7.37,20.08 7.81,20.5 8.34,20.5L15.65,20.5C16.18,20.5 16.62,20.08 16.65,19.55ZM18.96,6.5L18.11,20.12C18.05,21.17 17.17,22 16.12,22L7.87,22C6.82,22 5.94,21.17 5.88,20.12L5.03,6.5L3.75,6.5C3.33,6.5 3,6.16 3,5.75C3,5.33 3.33,5 3.75,5L20.25,5C20.66,5 21,5.33 21,5.75C21,6.16 20.66,6.5 20.25,6.5Z"/>
</svg>