<svg xmlns="http://www.w3.org/2000/svg" width="17" height="17" viewBox="0 0 28 28">
	<style type="text/css">
		.st0{fill:#000000;}
	</style>
	<path class="st0" d="M14,26C7.38,26 2,20.61 2,14C2,7.38 7.38,2 14,2C20.61,2 26,7.38 26,14C26,20.61 20.61,26 14,26M14,0C6.28,0 0,6.28 0,14C0,21.71 6.28,28 14,28C21.71,28 28,21.71 28,14C28,6.28 21.71,0 14,0"/>
	<path class="st0" d="M14,4C13.44,4 13,4.44 13,5L13,13.58L7.63,18.94C7.24,19.34 7.24,19.97 7.63,20.36C7.83,20.55 8.08,20.65 8.34,20.65C8.59,20.65 8.85,20.55 9.05,20.36L14.7,14.7C14.79,14.61 14.87,14.5 14.92,14.38C14.97,14.26 15,14.13 15,14L15,5C15,4.44 14.55,4 14,4"/>
</svg>