<svg xmlns="http://www.w3.org/2000/svg" width="93" height="87" viewBox="0 0 93 87">
	<style type="text/css">
		.st0{fill:#000000;}
	</style>
	<path class="st0" d="M10.5,0C16.29,0 21,4.7 21,10.5C21,15.78 17.08,20.16 12,20.89L12,42L45,42L45,20.89C39.91,20.16 36,15.78 36,10.5C36,4.7 40.7,0 46.5,0C52.29,0 57,4.7 57,10.5C57,15.78 53.08,20.16 48,20.89L48,42L72,42C76.97,42 81,37.97 81,33L81,20.89C75.91,20.16 72,15.78 72,10.5C72,4.7 76.7,0 82.5,0C88.29,0 93,4.7 93,10.5C93,15.78 89.08,20.16 84,20.89L84,33C84,39.62 78.62,45 72,45L48,45L48,66.1C53.08,66.83 57,71.2 57,76.5C57,82.29 52.29,87 46.5,87C40.7,87 36,82.29 36,76.5C36,71.2 39.91,66.83 45,66.1L45,45L12,45L12,66.1C17.08,66.83 21,71.2 21,76.5C21,82.29 16.29,87 10.5,87C4.7,87 0,82.29 0,76.5C0,71.2 3.91,66.83 9,66.1L9,45L9,42L9,20.89C3.91,20.16 0,15.78 0,10.5C0,4.7 4.7,0 10.5,0"/>
</svg>