<svg xmlns="http://www.w3.org/2000/svg" width="89.63" height="81.53" viewBox="0 0 89.63 81.53">
	<style type="text/css">
		.st0{fill:#000000;}
	</style>
	<path class="st0" d="M89.63,37.73C89.63,45.15 82.34,51.16 73.35,51.16C64.36,51.16 57.07,45.15 57.07,37.73M32.56,37.73C32.56,45.15 25.27,51.16 16.28,51.16C7.29,51.16 0,45.15 0,37.73M47.52,72.89L57.2,72.89C57.2,72.89 58.4,72.85 58.79,73.27C59.07,73.57 59.5,74.36 59.5,74.36L62.94,81.53L26.68,81.53L30.11,74.38C30.11,74.38 30.51,73.67 30.83,73.4C31.32,72.98 31.9,72.89 32.33,72.89L42.08,72.89L42.08,12.3C41.26,11.56 40.74,10.5 40.74,9.31C40.74,7.07 42.56,5.25 44.8,5.25C47.04,5.25 48.86,7.07 48.86,9.31C48.86,10.5 48.34,11.56 47.52,12.3L47.52,72.89ZM60.48,33.93L73.35,11.86L86.13,33.93ZM29.16,33.93L3.51,33.93L16.78,11.82ZM89.33,34.39L74.45,8.69C74.4,8.6 74.33,8.51 74.26,8.44C74.25,8.44 74.25,8.44 74.25,8.44C74.15,8.33 74.03,8.26 73.9,8.19C73.86,8.18 73.83,8.16 73.8,8.15C73.66,8.1 73.51,8.06 73.36,8.06L73.36,8.06L54.21,8.02C53.4,3.44 49.47,0 44.8,0C40.46,0 36.48,3.5 35.45,8.02L16.83,8.02L16.81,8.02C16.66,8.02 16.51,8.06 16.38,8.11C16.34,8.12 16.31,8.13 16.28,8.15C16.15,8.21 16.02,8.29 15.92,8.39C15.92,8.39 15.91,8.4 15.9,8.41C15.84,8.48 15.77,8.55 15.73,8.64L0.18,34.55C-0.05,34.94 -0.05,35.43 0.16,35.83C0.39,36.22 0.81,36.47 1.27,36.47L31.33,36.47C31.33,36.47 31.34,36.47 31.35,36.47C32.05,36.47 32.61,35.9 32.61,35.2C32.61,34.9 32.51,34.62 32.33,34.4L18.98,10.56L36.49,10.56C36.5,10.56 36.51,10.56 36.51,10.56C36.68,10.56 36.84,10.52 36.98,10.46C37.03,10.44 37.07,10.41 37.12,10.38C37.21,10.33 37.3,10.28 37.38,10.21C37.42,10.16 37.45,10.11 37.49,10.06C37.55,9.99 37.61,9.91 37.65,9.83C37.68,9.76 37.69,9.7 37.71,9.63C37.73,9.56 37.76,9.5 37.77,9.43C38.2,5.63 41.36,2.54 44.8,2.54C48.53,2.54 51.61,5.53 51.82,9.36C51.83,9.45 51.87,9.53 51.89,9.61C51.9,9.67 51.91,9.74 51.94,9.8C52.11,10.21 52.48,10.48 52.94,10.53C52.99,10.54 53.04,10.56 53.09,10.56L71.15,10.6L57.18,34.56C56.95,34.96 56.95,35.44 57.17,35.83C57.4,36.23 57.82,36.47 58.28,36.47L88.34,36.47C88.34,36.47 88.35,36.47 88.36,36.47C89.06,36.47 89.62,35.9 89.62,35.2C89.63,34.89 89.52,34.61 89.33,34.39"/>
</svg>