<svg xmlns="http://www.w3.org/2000/svg" width="89.99" height="85.82" viewBox="0 0 89.99 85.82">
	<style type="text/css">
		.st0{fill:#000000;}
	</style>
	<path class="st0" d="M89.86,32.59C89.49,31.47 88.59,30.71 85.86,30.46L61.01,28.15C59.53,28.01 58.72,27.42 58.13,26.06L48.26,3.14C47.18,0.62 46.18,0 45,0C43.81,0 42.81,0.62 41.73,3.14L31.86,26.07C31.27,27.43 30.46,28.01 28.98,28.15L4.13,30.46C1.4,30.71 0.5,31.47 0.13,32.59C-0.23,33.72 0.05,34.86 2.11,36.67L20.86,53.14C21.98,54.12 22.28,55.08 21.96,56.52L16.47,80.87C15.87,83.54 16.31,84.64 17.27,85.34C18.22,86.03 19.4,86.11 21.75,84.71L43.22,71.97C44.5,71.21 45.5,71.21 46.77,71.97L68.23,84.71C70.59,86.11 71.77,86.03 72.72,85.33C73.68,84.64 74.12,83.54 73.52,80.87L68.03,56.52C67.71,55.08 68.01,54.12 69.13,53.14L87.88,36.67C89.94,34.86 90.23,33.72 89.86,32.59"/>
</svg>